<?xml version="1.0" encoding="UTF-8" standalone="no"?>
<!-- Created with Inkscape (http://www.inkscape.org/) -->
<svg
   xmlns:dc="http://purl.org/dc/elements/1.1/"
   xmlns:cc="http://web.resource.org/cc/"
   xmlns:rdf="http://www.w3.org/1999/02/22-rdf-syntax-ns#"
   xmlns:svg="http://www.w3.org/2000/svg"
   xmlns="http://www.w3.org/2000/svg"
   xmlns:sodipodi="http://sodipodi.sourceforge.net/DTD/sodipodi-0.dtd"
   xmlns:inkscape="http://www.inkscape.org/namespaces/inkscape"
   width="470"
   height="470"
   id="svg2"
   sodipodi:version="0.32"
   inkscape:version="0.45.1"
   sodipodi:docbase="C:\Documents and Settings\Julien\Bureau"
   sodipodi:docname="W21-1a.svg"
   inkscape:output_extension="org.inkscape.output.svg.inkscape"
   version="1.0">
  <defs
     id="defs4" />
  <sodipodi:namedview
     id="base"
     pagecolor="#ffffff"
     bordercolor="#666666"
     borderopacity="1.0"
     inkscape:pageopacity="0.0"
     inkscape:pageshadow="2"
     inkscape:zoom="0.35"
     inkscape:cx="375"
     inkscape:cy="520"
     inkscape:document-units="px"
     inkscape:current-layer="layer1"
     inkscape:window-width="1680"
     inkscape:window-height="994"
     inkscape:window-x="-4"
     inkscape:window-y="-4"
     width="470px"
     height="470px" />
  <metadata
     id="metadata7">
    <rdf:RDF>
      <cc:Work
         rdf:about="">
        <dc:format>image/svg+xml</dc:format>
        <dc:type
           rdf:resource="http://purl.org/dc/dcmitype/StillImage" />
      </cc:Work>
    </rdf:RDF>
  </metadata>
  <g
     inkscape:label="Calque 1"
     inkscape:groupmode="layer"
     id="layer1"
     transform="translate(-126.83798,-272.76837)">
    <g
       id="g2231"
       transform="translate(-8.5714301,40)">
      <path
         style="fill:#fd7e00"
         d="M 357.90715,696.51234 C 344.61923,688.13547 140.56498,481.24937 138.91403,474.48005 C 138.05507,470.95808 138.0501,465.19487 138.90299,461.6729 C 141.0562,452.78134 355.41916,238.41838 364.31072,236.26517 C 367.83269,235.41228 373.5959,235.41228 377.11787,236.26517 C 386.00942,238.41838 600.37238,452.78134 602.52561,461.6729 C 603.37849,465.19487 603.37363,470.95808 602.51478,474.48005 C 600.79129,481.54784 392.95087,691.7411 381.89065,697.60174 C 373.39462,702.10366 366.26257,701.77968 357.90715,696.51234 z "
         id="path2237" />
      <path
         style="fill:#773800"
         d="M 357.90715,696.51234 C 344.61923,688.13547 140.56498,481.24937 138.91403,474.48005 C 138.05507,470.95808 138.0501,465.19487 138.90299,461.6729 C 141.0562,452.78134 355.41916,238.41838 364.31072,236.26517 C 367.83269,235.41228 373.5959,235.41228 377.11787,236.26517 C 386.00942,238.41838 600.37238,452.78134 602.52561,461.6729 C 603.37849,465.19487 603.37363,470.95808 602.51478,474.48005 C 600.79129,481.54784 392.95087,691.7411 381.89065,697.60174 C 373.39462,702.10366 366.26257,701.77968 357.90715,696.51234 z M 381.89065,695.27331 C 392.94701,689.41497 598.46218,481.54812 600.186,474.48005 C 601.04496,470.95808 601.04988,465.19487 600.19692,461.6729 C 598.04388,452.78266 386.00812,240.74688 377.11787,238.59384 C 373.5959,237.7409 367.83269,237.7409 364.31072,238.59384 C 355.42048,240.74688 143.3847,452.78266 141.23166,461.6729 C 140.37872,465.19487 140.38374,470.95808 141.24282,474.48005 C 142.89414,481.24988 344.62548,685.81127 357.90715,694.18391 C 366.26256,699.45109 373.3946,699.77504 381.89065,695.27331 z M 253.30619,584.68984 C 155.32118,486.68819 144.06667,474.67399 144.06667,468.07648 C 144.06667,461.47897 155.32118,449.46477 253.30619,351.46311 C 349.1529,255.60013 363.40737,242.20504 369.57383,242.20504 C 375.74205,242.20504 390.05951,255.67364 486.59384,352.28723 C 571.8348,437.59818 596.58573,463.65365 596.58573,468.07648 C 596.58573,472.49929 571.8348,498.55477 486.59384,583.86571 C 390.05951,680.47931 375.74205,693.94791 369.57383,693.94791 C 363.40737,693.94791 349.1529,680.55282 253.30619,584.68984 z M 480.15715,576.35505 L 588.41696,468.07648 L 480.15715,359.7979 C 420.61428,300.24469 370.84106,251.51933 369.55001,251.51933 C 368.25897,251.51933 318.49688,300.23355 258.9676,359.77316 L 150.73254,468.027 L 258.94318,576.33032 C 318.45903,635.89713 368.22111,684.63362 369.52558,684.63362 C 370.83007,684.63362 420.61428,635.90826 480.15715,576.35505 z M 286.45836,516.39615 C 286.86537,481.34882 288.16846,451.95042 289.36907,450.72862 C 293.60827,446.41463 291.40928,441.32225 280.54356,430.29065 L 269.54425,419.12342 L 298.48463,390.11339 C 325.64806,362.88458 327.68023,361.33434 331.58177,364.86518 C 333.868,366.93418 340.86973,369.12004 347.14119,369.72265 L 358.54384,370.8183 L 361.23371,393.25096 C 362.71314,405.58892 364.90807,423.54255 366.11133,433.1479 C 367.31459,442.75326 369.00408,460.45357 369.86574,472.48192 C 371.63462,497.17456 368.98625,493.32462 404.47858,522.79895 C 413.44358,530.24388 422.77684,538.00466 425.21914,540.04512 C 429.42811,543.56154 429.57173,543.45142 427.97266,537.93362 C 423.02016,520.84433 422.54338,516.45725 424.94675,510.09 C 429.62683,497.69111 442.81516,495.39663 466.86311,502.79755 C 474.8152,505.24483 487.90904,509.12218 495.96054,511.41384 L 510.59964,515.58052 L 478.52746,547.71422 L 446.45525,579.8479 L 413.24193,579.8479 C 394.97459,579.8479 380.02858,579.30304 380.02858,578.63709 C 380.02858,577.97115 384.74394,568.03744 390.50715,556.56219 C 396.27037,545.08694 400.98572,534.83853 400.98572,533.78792 C 400.98572,531.83129 365.82516,500.8401 348.26914,487.32254 L 338.48624,479.79 L 342.57651,491.40471 C 344.82615,497.79282 347.36211,503.71477 348.21196,504.56461 C 350.14726,506.49993 350.26625,571.1546 348.34373,576.16459 C 347.45706,578.47524 344.11691,579.8479 339.38104,579.8479 L 331.83177,579.8479 L 330.4862,549.59299 C 329.35122,524.07308 328.38511,518.27701 324.31318,512.55852 C 321.65808,508.82976 319.4524,504.89289 319.41167,503.80987 C 319.37094,502.72685 317.92113,499.97355 316.18987,497.69141 C 313.43784,494.06366 312.72384,496.40548 310.51016,516.31998 C 309.11757,528.84784 307.32974,548.26665 306.53721,559.4729 L 305.09623,579.8479 L 295.40883,579.84972 L 285.72144,579.85156 L 286.45836,516.39615 z M 351.88433,466.91219 C 350.76945,460.50862 349.11311,450.03005 348.20357,443.62647 C 346.64836,432.67707 346.44624,432.39969 344.80996,438.96933 C 343.85302,442.81147 341.88437,450.6704 340.43518,456.43362 C 337.84833,466.72113 337.93848,467.02807 345.37937,473.26749 C 349.54786,476.76291 353.17286,479.38255 353.43492,479.08892 C 353.69698,478.79529 352.99922,473.31576 351.88433,466.91219 z M 305.45995,414.08196 C 311.77096,401.01966 311.49876,400.67641 302.07352,409.81171 C 295.86754,415.82678 294.57408,418.38164 296.53721,420.74707 C 300.10752,425.04902 300.19157,424.98624 305.45995,414.08196 z M 335.60994,359.21887 C 332.31147,357.2135 328.25103,352.49646 326.58673,348.73654 C 314.41652,321.24214 344.85395,297.39278 367.14041,316.96055 C 374.6157,323.52394 375.37144,325.3191 375.37144,336.51219 C 375.37144,347.70528 374.6157,349.50044 367.14041,356.06382 C 357.78929,364.27422 345.88448,365.46545 335.60994,359.21887 z "
         id="path2235" />
      <path
         style="fill:#010100"
         d="M 254.85867,583.9138 C 168.40232,497.44309 144.84286,472.63305 144.84286,468.05819 C 144.84286,459.79186 362.19391,242.20504 370.45127,242.20504 C 377.9806,242.20504 596.58573,460.42331 596.58573,467.93931 C 596.58573,475.42333 377.86571,693.94791 370.37501,693.94791 C 366.22308,693.94791 337.90126,666.97019 254.85867,583.9138 z M 481.32144,577.51933 L 590.74572,468.07648 L 481.32144,358.63362 C 421.13809,298.44004 371.12636,249.19076 370.18425,249.19076 C 367.88582,249.19076 151.82142,465.19939 151.85465,467.464 C 151.88959,469.84568 367.73586,686.96219 370.06865,686.96219 C 371.07434,686.96219 421.13809,637.71291 481.32144,577.51933 z M 285.41552,571.11576 C 286.11277,566.31308 287.37662,537.28441 288.22408,506.6076 C 289.09023,475.25432 290.81582,449.14884 292.16493,446.98856 C 294.10656,443.87952 292.17794,440.84477 282.06698,431.0991 L 269.56901,419.05266 L 297.55384,391.06783 L 325.53866,363.08301 L 332.40862,366.6654 C 336.1871,368.63571 343.1462,370.25424 347.8733,370.26213 C 352.60039,370.27002 357.02039,371.17024 357.69552,372.26262 C 358.94311,374.28127 361.12867,394.0317 367.26746,458.76219 C 371.10086,499.18349 368.08429,493.03676 395.47537,516.24018 C 422.07571,538.77379 432.20912,546.09931 430.29999,541.41521 C 422.02588,521.11444 422.19952,512.7021 431.09082,503.10338 C 435.23526,498.62922 449.81682,498.45022 463.85715,502.70117 C 469.62037,504.44608 476.95537,506.67853 480.15715,507.66219 C 483.35894,508.64585 490.69394,510.81468 496.45715,512.48184 C 502.22037,514.14901 507.40875,515.87874 507.98689,516.32571 C 508.56503,516.77266 494.95746,531.24799 477.74783,548.49313 L 446.45758,579.8479 L 413.24307,579.8479 C 394.9751,579.8479 380.02858,579.49198 380.02858,579.05696 C 380.02858,578.62194 385.23643,568.03709 391.6016,555.53508 C 400.62081,537.82015 402.54773,532.21071 400.33375,530.11483 C 398.77125,528.63573 393.82537,524.42271 389.34287,520.75258 C 376.88657,510.55379 359.69502,495.81239 348.9566,486.12218 C 343.63395,481.31911 338.91872,478.47036 338.47829,479.79163 C 338.03787,481.11291 340.47301,489.17696 343.88972,497.71174 C 349.9584,512.87104 350.0638,513.99909 348.45207,546.53874 L 346.80222,579.8479 L 338.9654,579.8479 L 331.12858,579.8479 L 331.12858,550.86553 C 331.12858,521.91118 331.12065,521.8696 322.92997,507.89432 C 309.89501,485.65356 311.2687,481.64744 306.44161,555.98005 L 304.89165,579.8479 L 294.51972,579.8479 L 284.1478,579.8479 L 285.41552,571.11576 z M 352.4173,462.37204 C 351.03261,455.90412 349.27611,446.57565 348.51397,441.6421 C 347.75184,436.70856 346.58029,433.22001 345.91052,433.88977 C 344.76297,435.03732 343.93609,437.87407 338.49081,459.34433 C 337.27276,464.14701 336.95171,468.07766 337.77738,468.07908 C 338.60304,468.08053 342.42215,471.07379 346.26429,474.73079 C 354.73539,482.7937 356.17169,479.90878 352.4173,462.37204 z M 307.40336,412.19076 C 310.06457,405.78719 311.86156,400.5479 311.39669,400.5479 C 310.93181,400.5479 306.38413,404.55187 301.29074,409.4456 C 293.12311,417.29306 292.48226,418.65116 295.86144,420.95152 C 301.76932,424.97328 302.2395,424.6164 307.40336,412.19076 z M 334.23575,356.83541 C 331.4622,354.62264 327.6949,349.14286 325.86397,344.65813 C 322.87692,337.34156 322.97071,335.47819 326.77706,326.51575 C 334.04002,309.4144 351.9618,305.52576 367.2676,317.73018 C 373.45982,322.66769 374.20715,324.64624 374.20715,336.10245 C 374.20715,347.48046 373.41229,349.62489 367.22144,354.94891 C 358.72743,362.2536 342.21106,363.1982 334.23575,356.83541 z "
         id="path2233" />
    </g>
  </g>
</svg>
